<svg width="24" height="24" viewBox="0 0 24 24" fill="none" xmlns="http://www.w3.org/2000/svg">
<path d="M12.0001 7.89001L10.9301 9.75001C10.6901 10.16 10.8901 10.5 11.3601 10.5H12.6301C13.1101 10.5 13.3001 10.84 13.0601 11.25L12.0001 13.11" stroke="white" stroke-width="1.5" stroke-linecap="round" stroke-linejoin="round"/>
<path d="M8.50011 22C10.7901 21.35 13.2101 21.35 15.5001 22M8.30011 18.04V16.88C6.00011 15.49 4.11011 12.78 4.11011 9.89999C4.11011 4.94999 8.66011 1.06999 13.8001 2.18999C16.0601 2.68999 18.0401 4.18999 19.0701 6.25999C21.1601 10.46 18.9601 14.92 15.7301 16.87V18.03C15.7301 18.32 15.8401 18.99 14.7701 18.99H9.26011C8.16011 19 8.30011 18.57 8.30011 18.04Z" stroke="white" stroke-width="1.5" stroke-linecap="round" stroke-linejoin="round"/>
</svg>
