<svg width="24" height="24" viewBox="0 0 24 24" fill="none" xmlns="http://www.w3.org/2000/svg">
<path d="M16.9679 14.44C18.3379 14.67 19.8479 14.43 20.9079 13.72C22.3179 12.78 22.3179 11.24 20.9079 10.3C19.8379 9.59 18.3079 9.35 16.9379 9.59M7.00092 14.44C5.63092 14.67 4.12092 14.43 3.06092 13.72C1.65092 12.78 1.65092 11.24 3.06092 10.3C4.13092 9.59 5.66092 9.35 7.03092 9.59M14.9089 17.78C13.3189 16.72 10.6889 16.72 9.08892 17.78C7.67892 18.72 7.67892 20.26 9.08892 21.2C10.6889 22.27 13.3089 22.27 14.9089 21.2M17.9979 7.16C17.935 7.14999 17.8709 7.14999 17.8079 7.16C17.1406 7.13587 16.5087 6.85321 16.0459 6.37176C15.5831 5.89032 15.3257 5.2478 15.3279 4.58C15.3279 3.15 16.4779 2 17.9079 2C18.5922 2 19.2484 2.27182 19.7323 2.75566C20.2161 3.23951 20.4879 3.89574 20.4879 4.58C20.4861 5.24827 20.2259 5.88996 19.7618 6.37081C19.2977 6.85167 18.6657 7.13445 17.9979 7.16V7.16ZM5.96992 7.16C6.02992 7.15 6.09992 7.15 6.15992 7.16C6.82729 7.13587 7.45913 6.85321 7.92191 6.37176C8.3847 5.89032 8.64217 5.2478 8.63992 4.58C8.63992 3.15 7.48992 2 6.05992 2C5.37566 2 4.71943 2.27182 4.23558 2.75566C3.75174 3.23951 3.47992 3.89574 3.47992 4.58C3.48992 5.98 4.58992 7.11 5.96992 7.16ZM11.9979 14.629C11.935 14.619 11.8709 14.619 11.8079 14.629C11.1406 14.6049 10.5087 14.3222 10.0459 13.8408C9.58314 13.3593 9.32567 12.7168 9.32792 12.049C9.32792 10.619 10.4779 9.469 11.9079 9.469C12.5922 9.469 13.2484 9.74082 13.7323 10.2247C14.2161 10.7085 14.4879 11.3647 14.4879 12.049C14.4779 13.449 13.3779 14.589 11.9979 14.629Z" stroke="white" stroke-width="1.5" stroke-linecap="round" stroke-linejoin="round"/>
</svg>
